<svg width="23" height="26" viewBox="0 0 23 26" fill="none" xmlns="http://www.w3.org/2000/svg">
<path d="M1.99061 9.57333C2.01407 9.28097 2.1468 9.00817 2.36235 8.80926C2.5779 8.61036 2.86047 8.49994 3.15377 8.5H19.3751C19.6684 8.49994 19.951 8.61036 20.1665 8.80926C20.3821 9.00817 20.5148 9.28097 20.5383 9.57333L21.5614 22.3133C21.5872 22.6344 21.5462 22.9573 21.4411 23.2618C21.3359 23.5662 21.1689 23.8456 20.9505 24.0823C20.732 24.319 20.467 24.5079 20.172 24.6372C19.877 24.7665 19.5584 24.8332 19.2363 24.8333H3.29261C2.97052 24.8332 2.65193 24.7665 2.35692 24.6372C2.0619 24.5079 1.79684 24.319 1.57842 24.0823C1.36 23.8456 1.19296 23.5662 1.08781 23.2618C0.982655 22.9573 0.941673 22.6344 0.96744 22.3133L1.98944 9.57333H1.99061Z" stroke="black" stroke-width="1.5" stroke-linecap="round" stroke-linejoin="round"/>
<path d="M15.931 12V6.16667C15.931 4.92899 15.4393 3.742 14.5642 2.86684C13.689 1.99167 12.502 1.5 11.2643 1.5C10.0266 1.5 8.83966 1.99167 7.96449 2.86684C7.08932 3.742 6.59766 4.92899 6.59766 6.16667V12" stroke="black" stroke-width="1.5" stroke-linecap="round" stroke-linejoin="round"/>
</svg>
